<mxfile host="app.diagrams.net" agent="Mozilla/5.0 (Windows NT 10.0; Win64; x64) AppleWebKit/537.36 (KHTML, like Gecko) Chrome/130.0.0.0 Safari/537.36" version="24.7.7">
  <diagram name="第 1 页" id="Nd2kuQgkJqfOorpsSmCz">
    <mxGraphModel dx="2190" dy="797" grid="1" gridSize="10" guides="1" tooltips="1" connect="1" arrows="1" fold="1" page="1" pageScale="1" pageWidth="827" pageHeight="1169" math="0" shadow="0">
      <root>
        <mxCell id="0" />
        <mxCell id="1" parent="0" />
        <mxCell id="zOhAhn4iWSKjn6xKDxIw-1" value="block11" style="rounded=0;whiteSpace=wrap;html=1;fillColor=#ffe6cc;strokeColor=#d79b00;" vertex="1" parent="1">
          <mxGeometry x="820" y="280" width="70" height="40" as="geometry" />
        </mxCell>
        <mxCell id="zOhAhn4iWSKjn6xKDxIw-18" value="" style="edgeStyle=orthogonalEdgeStyle;rounded=0;orthogonalLoop=1;jettySize=auto;html=1;" edge="1" parent="1" source="zOhAhn4iWSKjn6xKDxIw-2" target="zOhAhn4iWSKjn6xKDxIw-4">
          <mxGeometry relative="1" as="geometry" />
        </mxCell>
        <mxCell id="zOhAhn4iWSKjn6xKDxIw-2" value="block12" style="rounded=0;whiteSpace=wrap;html=1;fillColor=#ffe6cc;strokeColor=#d79b00;" vertex="1" parent="1">
          <mxGeometry x="480" y="280" width="70" height="40" as="geometry" />
        </mxCell>
        <mxCell id="zOhAhn4iWSKjn6xKDxIw-17" value="" style="edgeStyle=orthogonalEdgeStyle;rounded=0;orthogonalLoop=1;jettySize=auto;html=1;" edge="1" parent="1" source="zOhAhn4iWSKjn6xKDxIw-3" target="zOhAhn4iWSKjn6xKDxIw-2">
          <mxGeometry relative="1" as="geometry" />
        </mxCell>
        <mxCell id="zOhAhn4iWSKjn6xKDxIw-3" value="block13" style="rounded=0;whiteSpace=wrap;html=1;fillColor=#ffe6cc;strokeColor=#d79b00;" vertex="1" parent="1">
          <mxGeometry x="370" y="280" width="70" height="40" as="geometry" />
        </mxCell>
        <mxCell id="zOhAhn4iWSKjn6xKDxIw-19" value="" style="edgeStyle=orthogonalEdgeStyle;rounded=0;orthogonalLoop=1;jettySize=auto;html=1;" edge="1" parent="1" source="zOhAhn4iWSKjn6xKDxIw-4" target="zOhAhn4iWSKjn6xKDxIw-7">
          <mxGeometry relative="1" as="geometry" />
        </mxCell>
        <mxCell id="zOhAhn4iWSKjn6xKDxIw-4" value="block21" style="rounded=0;whiteSpace=wrap;html=1;fillColor=#dae8fc;strokeColor=#6c8ebf;" vertex="1" parent="1">
          <mxGeometry x="597" y="280" width="70" height="40" as="geometry" />
        </mxCell>
        <mxCell id="zOhAhn4iWSKjn6xKDxIw-16" value="" style="edgeStyle=orthogonalEdgeStyle;rounded=0;orthogonalLoop=1;jettySize=auto;html=1;" edge="1" parent="1" source="zOhAhn4iWSKjn6xKDxIw-5" target="zOhAhn4iWSKjn6xKDxIw-3">
          <mxGeometry relative="1" as="geometry" />
        </mxCell>
        <mxCell id="zOhAhn4iWSKjn6xKDxIw-5" value="block22" style="rounded=0;whiteSpace=wrap;html=1;fillColor=#dae8fc;strokeColor=#6c8ebf;" vertex="1" parent="1">
          <mxGeometry x="254" y="280" width="70" height="40" as="geometry" />
        </mxCell>
        <mxCell id="zOhAhn4iWSKjn6xKDxIw-13" value="" style="edgeStyle=orthogonalEdgeStyle;rounded=0;orthogonalLoop=1;jettySize=auto;html=1;" edge="1" parent="1" source="zOhAhn4iWSKjn6xKDxIw-6" target="zOhAhn4iWSKjn6xKDxIw-9">
          <mxGeometry relative="1" as="geometry" />
        </mxCell>
        <mxCell id="zOhAhn4iWSKjn6xKDxIw-6" value="block23" style="rounded=0;whiteSpace=wrap;html=1;fillColor=#dae8fc;strokeColor=#6c8ebf;" vertex="1" parent="1">
          <mxGeometry x="-80" y="280" width="70" height="40" as="geometry" />
        </mxCell>
        <mxCell id="zOhAhn4iWSKjn6xKDxIw-20" value="" style="edgeStyle=orthogonalEdgeStyle;rounded=0;orthogonalLoop=1;jettySize=auto;html=1;" edge="1" parent="1" source="zOhAhn4iWSKjn6xKDxIw-7" target="zOhAhn4iWSKjn6xKDxIw-1">
          <mxGeometry relative="1" as="geometry" />
        </mxCell>
        <mxCell id="zOhAhn4iWSKjn6xKDxIw-7" value="block31" style="rounded=0;whiteSpace=wrap;html=1;fillColor=#d5e8d4;strokeColor=#82b366;" vertex="1" parent="1">
          <mxGeometry x="700" y="280" width="70" height="40" as="geometry" />
        </mxCell>
        <mxCell id="zOhAhn4iWSKjn6xKDxIw-15" value="" style="edgeStyle=orthogonalEdgeStyle;rounded=0;orthogonalLoop=1;jettySize=auto;html=1;" edge="1" parent="1" source="zOhAhn4iWSKjn6xKDxIw-8" target="zOhAhn4iWSKjn6xKDxIw-5">
          <mxGeometry relative="1" as="geometry" />
        </mxCell>
        <mxCell id="zOhAhn4iWSKjn6xKDxIw-8" value="block32" style="rounded=0;whiteSpace=wrap;html=1;fillColor=#d5e8d4;strokeColor=#82b366;" vertex="1" parent="1">
          <mxGeometry x="140" y="280" width="70" height="40" as="geometry" />
        </mxCell>
        <mxCell id="zOhAhn4iWSKjn6xKDxIw-14" value="" style="edgeStyle=orthogonalEdgeStyle;rounded=0;orthogonalLoop=1;jettySize=auto;html=1;" edge="1" parent="1" source="zOhAhn4iWSKjn6xKDxIw-9" target="zOhAhn4iWSKjn6xKDxIw-8">
          <mxGeometry relative="1" as="geometry" />
        </mxCell>
        <mxCell id="zOhAhn4iWSKjn6xKDxIw-9" value="block33" style="rounded=0;whiteSpace=wrap;html=1;fillColor=#d5e8d4;strokeColor=#82b366;" vertex="1" parent="1">
          <mxGeometry x="30" y="280" width="70" height="40" as="geometry" />
        </mxCell>
        <mxCell id="zOhAhn4iWSKjn6xKDxIw-10" value="block1" style="rounded=0;whiteSpace=wrap;html=1;fillColor=#ffe6cc;strokeColor=#d79b00;" vertex="1" parent="1">
          <mxGeometry x="70" y="140" width="190" height="50" as="geometry" />
        </mxCell>
        <mxCell id="zOhAhn4iWSKjn6xKDxIw-11" value="block2" style="rounded=0;whiteSpace=wrap;html=1;fillColor=#dae8fc;strokeColor=#6c8ebf;" vertex="1" parent="1">
          <mxGeometry x="260" y="140" width="190" height="50" as="geometry" />
        </mxCell>
        <mxCell id="zOhAhn4iWSKjn6xKDxIw-12" value="block3" style="rounded=0;whiteSpace=wrap;html=1;fillColor=#d5e8d4;strokeColor=#82b366;" vertex="1" parent="1">
          <mxGeometry x="450" y="140" width="190" height="50" as="geometry" />
        </mxCell>
        <mxCell id="zOhAhn4iWSKjn6xKDxIw-21" value="" style="endArrow=classic;html=1;rounded=0;strokeWidth=2;spacing=6;" edge="1" parent="1">
          <mxGeometry relative="1" as="geometry">
            <mxPoint x="-110" y="360" as="sourcePoint" />
            <mxPoint x="952" y="360" as="targetPoint" />
          </mxGeometry>
        </mxCell>
        <mxCell id="zOhAhn4iWSKjn6xKDxIw-24" value="&lt;font style=&quot;font-size: 18px;&quot;&gt;stream&lt;/font&gt;" style="text;html=1;align=center;verticalAlign=middle;resizable=0;points=[];autosize=1;strokeColor=none;fillColor=none;" vertex="1" parent="1">
          <mxGeometry x="340" y="350" width="80" height="40" as="geometry" />
        </mxCell>
        <mxCell id="zOhAhn4iWSKjn6xKDxIw-25" value="&lt;font style=&quot;font-size: 17px;&quot;&gt;client&lt;/font&gt;" style="ellipse;whiteSpace=wrap;html=1;" vertex="1" parent="1">
          <mxGeometry x="-240" y="330" width="120" height="80" as="geometry" />
        </mxCell>
        <mxCell id="zOhAhn4iWSKjn6xKDxIw-26" value="&lt;font style=&quot;font-size: 17px;&quot;&gt;service&lt;/font&gt;" style="ellipse;whiteSpace=wrap;html=1;" vertex="1" parent="1">
          <mxGeometry x="960" y="320" width="120" height="80" as="geometry" />
        </mxCell>
        <mxCell id="zOhAhn4iWSKjn6xKDxIw-27" value="" style="whiteSpace=wrap;html=1;aspect=fixed;" vertex="1" parent="1">
          <mxGeometry x="-19" y="610" width="390" height="390" as="geometry" />
        </mxCell>
        <mxCell id="zOhAhn4iWSKjn6xKDxIw-38" value="&lt;font style=&quot;font-size: 23px;&quot;&gt;接收到数据后，在堆中new一个对应数据的内存&lt;/font&gt;" style="text;html=1;align=center;verticalAlign=middle;whiteSpace=wrap;rounded=0;" vertex="1" parent="1">
          <mxGeometry x="10" y="650" width="280" height="30" as="geometry" />
        </mxCell>
        <mxCell id="zOhAhn4iWSKjn6xKDxIw-40" value="request().body().data()&amp;nbsp; &amp;nbsp; &amp;nbsp; &amp;nbsp; &amp;nbsp; &amp;nbsp;block11" style="rounded=0;whiteSpace=wrap;html=1;fillColor=#ffe6cc;strokeColor=#d79b00;" vertex="1" parent="1">
          <mxGeometry x="171" y="715" width="150" height="45" as="geometry" />
        </mxCell>
        <mxCell id="zOhAhn4iWSKjn6xKDxIw-41" value="new ptr11" style="rounded=0;whiteSpace=wrap;html=1;" vertex="1" parent="1">
          <mxGeometry x="51" y="710" width="120" height="60" as="geometry" />
        </mxCell>
        <mxCell id="zOhAhn4iWSKjn6xKDxIw-54" value="" style="edgeStyle=orthogonalEdgeStyle;rounded=0;orthogonalLoop=1;jettySize=auto;html=1;" edge="1" parent="1" source="zOhAhn4iWSKjn6xKDxIw-42" target="zOhAhn4iWSKjn6xKDxIw-53">
          <mxGeometry relative="1" as="geometry" />
        </mxCell>
        <mxCell id="zOhAhn4iWSKjn6xKDxIw-42" value="map" style="text;strokeColor=none;fillColor=none;html=1;fontSize=24;fontStyle=1;verticalAlign=middle;align=center;" vertex="1" parent="1">
          <mxGeometry x="130" y="1330" width="100" height="40" as="geometry" />
        </mxCell>
        <mxCell id="zOhAhn4iWSKjn6xKDxIw-53" value="&lt;ol style=&quot;font-size: 23px;&quot;&gt;&lt;li&gt;block1的头结点----&amp;gt; node11&lt;/li&gt;&lt;li&gt;block2的头结点&lt;/li&gt;&lt;li&gt;block3的头结点&lt;/li&gt;&lt;/ol&gt;" style="text;strokeColor=none;fillColor=none;html=1;whiteSpace=wrap;verticalAlign=middle;overflow=hidden;" vertex="1" parent="1">
          <mxGeometry x="290" y="1230" width="460" height="240" as="geometry" />
        </mxCell>
        <mxCell id="zOhAhn4iWSKjn6xKDxIw-57" value="&lt;font style=&quot;font-size: 17px;&quot;&gt;block ID&lt;/font&gt;&lt;div&gt;&lt;font style=&quot;font-size: 17px;&quot;&gt;内存电网数据的key&lt;/font&gt;&lt;/div&gt;&lt;div&gt;&lt;span style=&quot;font-size: 17px;&quot;&gt;data_ptr = std::move(ptr11)&lt;/span&gt;&lt;/div&gt;" style="shape=ext;double=1;rounded=0;whiteSpace=wrap;html=1;fillColor=#ffe6cc;strokeColor=#d79b00;" vertex="1" parent="1">
          <mxGeometry x="666" y="730" width="274" height="110" as="geometry" />
        </mxCell>
        <mxCell id="zOhAhn4iWSKjn6xKDxIw-58" value="建立节点Node11" style="text;strokeColor=none;fillColor=none;html=1;fontSize=24;fontStyle=1;verticalAlign=middle;align=center;" vertex="1" parent="1">
          <mxGeometry x="696" y="680" width="100" height="40" as="geometry" />
        </mxCell>
        <mxCell id="zOhAhn4iWSKjn6xKDxIw-59" value="" style="shape=flexArrow;endArrow=classic;html=1;rounded=0;" edge="1" parent="1">
          <mxGeometry width="50" height="50" relative="1" as="geometry">
            <mxPoint x="466" y="790" as="sourcePoint" />
            <mxPoint x="596" y="790" as="targetPoint" />
          </mxGeometry>
        </mxCell>
        <mxCell id="zOhAhn4iWSKjn6xKDxIw-60" value="" style="shape=flexArrow;endArrow=classic;html=1;rounded=0;" edge="1" parent="1">
          <mxGeometry width="50" height="50" relative="1" as="geometry">
            <mxPoint x="414" y="430" as="sourcePoint" />
            <mxPoint x="414" y="560" as="targetPoint" />
            <Array as="points">
              <mxPoint x="414" y="500" />
            </Array>
          </mxGeometry>
        </mxCell>
        <mxCell id="zOhAhn4iWSKjn6xKDxIw-61" value="" style="shape=flexArrow;endArrow=classic;html=1;rounded=0;" edge="1" parent="1">
          <mxGeometry width="50" height="50" relative="1" as="geometry">
            <mxPoint x="700" y="890" as="sourcePoint" />
            <mxPoint x="230" y="1270" as="targetPoint" />
          </mxGeometry>
        </mxCell>
        <mxCell id="zOhAhn4iWSKjn6xKDxIw-64" value="&lt;font style=&quot;font-size: 23px;&quot;&gt;把结点放入map&lt;/font&gt;" style="text;html=1;align=center;verticalAlign=middle;resizable=0;points=[];autosize=1;strokeColor=none;fillColor=none;" vertex="1" parent="1">
          <mxGeometry x="480" y="1083" width="180" height="40" as="geometry" />
        </mxCell>
        <mxCell id="zOhAhn4iWSKjn6xKDxIw-65" value="&lt;font style=&quot;font-size: 17px;&quot;&gt;unique_ptr&amp;lt;Node&amp;gt; node11&lt;/font&gt;" style="rounded=0;whiteSpace=wrap;html=1;fillColor=#ffe6cc;strokeColor=#d79b00;" vertex="1" parent="1">
          <mxGeometry x="840" y="660" width="210" height="60" as="geometry" />
        </mxCell>
        <mxCell id="zOhAhn4iWSKjn6xKDxIw-66" value="" style="edgeStyle=orthogonalEdgeStyle;rounded=0;orthogonalLoop=1;jettySize=auto;html=1;" edge="1" parent="1" source="zOhAhn4iWSKjn6xKDxIw-67" target="zOhAhn4iWSKjn6xKDxIw-68">
          <mxGeometry relative="1" as="geometry" />
        </mxCell>
        <mxCell id="zOhAhn4iWSKjn6xKDxIw-67" value="map" style="text;strokeColor=none;fillColor=none;html=1;fontSize=24;fontStyle=1;verticalAlign=middle;align=center;" vertex="1" parent="1">
          <mxGeometry x="120" y="1700" width="100" height="40" as="geometry" />
        </mxCell>
        <mxCell id="zOhAhn4iWSKjn6xKDxIw-68" value="&lt;ol style=&quot;font-size: 23px;&quot;&gt;&lt;li&gt;block1的头结点----&amp;gt; node11 ---&amp;gt;node12&lt;/li&gt;&lt;li&gt;block2的头结点----&amp;gt; node21 ---&amp;gt;node22&lt;/li&gt;&lt;li&gt;block3的头结点----&amp;gt; node31 ---&amp;gt; node32&lt;/li&gt;&lt;/ol&gt;" style="text;strokeColor=none;fillColor=none;html=1;whiteSpace=wrap;verticalAlign=middle;overflow=hidden;" vertex="1" parent="1">
          <mxGeometry x="280" y="1600" width="460" height="240" as="geometry" />
        </mxCell>
        <mxCell id="zOhAhn4iWSKjn6xKDxIw-69" value="" style="shape=flexArrow;endArrow=classic;html=1;rounded=0;" edge="1" parent="1">
          <mxGeometry width="50" height="50" relative="1" as="geometry">
            <mxPoint x="360" y="1490" as="sourcePoint" />
            <mxPoint x="360" y="1590" as="targetPoint" />
          </mxGeometry>
        </mxCell>
        <mxCell id="zOhAhn4iWSKjn6xKDxIw-70" value="&lt;font style=&quot;font-size: 17px;&quot;&gt;以此类推，保存所有block&lt;/font&gt;" style="text;html=1;align=center;verticalAlign=middle;whiteSpace=wrap;rounded=0;" vertex="1" parent="1">
          <mxGeometry x="380" y="1530" width="220" height="30" as="geometry" />
        </mxCell>
        <mxCell id="zOhAhn4iWSKjn6xKDxIw-71" style="edgeStyle=orthogonalEdgeStyle;rounded=0;orthogonalLoop=1;jettySize=auto;html=1;exitX=0.5;exitY=1;exitDx=0;exitDy=0;" edge="1" parent="1" source="zOhAhn4iWSKjn6xKDxIw-27" target="zOhAhn4iWSKjn6xKDxIw-27">
          <mxGeometry relative="1" as="geometry" />
        </mxCell>
        <mxCell id="zOhAhn4iWSKjn6xKDxIw-72" value="" style="shape=flexArrow;endArrow=classic;html=1;rounded=0;" edge="1" parent="1">
          <mxGeometry width="50" height="50" relative="1" as="geometry">
            <mxPoint x="370" y="1810" as="sourcePoint" />
            <mxPoint x="370" y="1910" as="targetPoint" />
          </mxGeometry>
        </mxCell>
        <mxCell id="zOhAhn4iWSKjn6xKDxIw-73" value="&lt;font style=&quot;font-size: 17px;&quot;&gt;遍历map&lt;/font&gt;" style="text;html=1;align=center;verticalAlign=middle;whiteSpace=wrap;rounded=0;" vertex="1" parent="1">
          <mxGeometry x="390" y="1850" width="220" height="30" as="geometry" />
        </mxCell>
        <mxCell id="zOhAhn4iWSKjn6xKDxIw-74" value="&lt;font style=&quot;font-size: 19px;&quot;&gt;info.key = node11-&amp;gt;key&lt;/font&gt;&lt;div&gt;&lt;font style=&quot;font-size: 19px;&quot;&gt;info.data_ptr = std::move(node11-&amp;gt;data_ptr)&lt;/font&gt;&lt;/div&gt;" style="rounded=0;whiteSpace=wrap;html=1;fillColor=#ffe6cc;strokeColor=#d79b00;" vertex="1" parent="1">
          <mxGeometry x="150" y="1960" width="500" height="60" as="geometry" />
        </mxCell>
        <mxCell id="zOhAhn4iWSKjn6xKDxIw-75" value="&lt;font style=&quot;font-size: 19px;&quot;&gt;Info&lt;/font&gt;" style="text;html=1;align=center;verticalAlign=middle;whiteSpace=wrap;rounded=0;" vertex="1" parent="1">
          <mxGeometry x="254" y="1920" width="60" height="30" as="geometry" />
        </mxCell>
        <mxCell id="zOhAhn4iWSKjn6xKDxIw-76" value="&lt;font style=&quot;font-size: 25px;&quot;&gt;Enqueue(std::move(info))&lt;/font&gt;" style="text;html=1;align=center;verticalAlign=middle;resizable=0;points=[];autosize=1;strokeColor=none;fillColor=none;" vertex="1" parent="1">
          <mxGeometry x="250" y="2080" width="310" height="40" as="geometry" />
        </mxCell>
      </root>
    </mxGraphModel>
  </diagram>
</mxfile>
